# xmcd CD database file
#
# Track frame offsets:
#	150
#	18440
#	37787
#	60465
#	82740
#	94650
#	107370
#	127810
#	148512
#	159885
#
# Disc length: 2404 seconds
#
# Revision: 0
# Processed by: cddbd v1.5.1PL0 Copyright (c) Steve Scherf et al.
# Submitted via: CDex 1.51
#
DISCID=6109620a
DTITLE=BLUE NOTE - ジャズ地獄への招待状　A Helluva Jazz
DYEAR=1900
DGENRE=Jazz
TTITLE0=Summertime/Sonny Criss
TTITLE1=Crazy/Elmo Hope
TTITLE2=Tenor Blooz/Joe Morello
TTITLE3=Phil T. McNASTY Blues/Doug Watkins
TTITLE4=Meet Mr.GORDON/Bob Gordon
TTITLE5=Trumpet at Tempo/Howard McGHEE
TTITLE6=Chloe/Jimmy Rowles
TTITLE7=Jazz of Two Cities/Warne Marsh
TTITLE8=Snuggled on Your Shoulder/Beverly Kenney
TTITLE9=Minor Meeting/Lawrence Marable
EXTD=
EXTT0=
EXTT1=
EXTT2=
EXTT3=
EXTT4=
EXTT5=
EXTT6=
EXTT7=
EXTT8=
EXTT9=
PLAYORDER=
